<?xml version="1.0" encoding="UTF-8"?>
<svg width="64" height="64" version="1.1" xmlns="http://www.w3.org/2000/svg">
 <rect x="0" y="0" width="64" height="64" rx="4" ry="4" style="fill: white; stroke: none" />
 <path d="m32.629715999999995 61.83702c-3.7437498-0.43878239999999996-6.445278-3.3451109999999997-8.035523999999999-6.535242-2.9825711999999998-1.3157424-5.905494-3.5800001999999997-6.422598-7.032312-0.39731579999999994-2.9892618-1.0205622-5.739929999999999-3.7423512-7.402373999999999-2.586465-2.3995818 1.5368723999999998-6.151193999999999-0.6663006-8.267994-3.6731016-1.2406716-8.165556-0.9333954-11.074266-3.823092-2.500092-3.0155705999999998 2.419011-5.297292 5.0013179999999995-5.221314 2.9957255999999997-0.26221859999999997 6.0056639999999994-0.26893188 9.009252-0.38230919999999996 0.26520479999999996-4.081266 2.2159494-7.840098 3.5310113999999997-11.659032 1.4243796-3.0635388 2.2974462-6.6864419999999996 4.989978-8.93403 2.5150607999999997-1.3514634 5.41107 0.1049895 8.103564-3e-3 4.667165999999999 0.20126232 10.05669 1.1064438 12.751452 5.3838539999999995 1.6366266 2.5662042 1.9143809999999997 5.673401999999999 2.3666202 8.607816 4.31109 0.27656748 9.287082 0.2584575 12.559427999999999 3.5434854 2.632581 2.6249831999999995-0.42490979999999995 6.136074-3.1456025999999997 7.0527239999999995-2.0518974 0.905499-4.2797160000000005 1.2461148-6.463422 1.6810416-0.5064066 2.225853 0.73332 4.0604759999999995 1.590624 6.010956 0.8960868 2.8704186-1.4323175999999997 5.516532-1.2021533999999998 8.252874 1.9894517999999997 3.4190856-3.017763 3.2060448-2.8919646 6.149304-0.6721974 3.2593805999999996-3.9674880000000003 4.496688-5.967864 6.579845999999999-1.0395755999999998 3.2016978-3.8605140000000002 5.732747999999999-7.288595999999999 6.010956-1.0106586 0.161406-2.0024927999999997 0.28062719999999997-3.0025296-1e-3zm3.5990514-0.7086744c1.629936-0.6370811999999999 2.6985419999999998-0.892647 1.9031922-2.5781490000000002 1.0105452 3.6821357999999997 3.6219582-1.4913234 4.380264-3.0755213999999995 0.889056-2.8423332-1.6810037999999998 2.830653-0.8503487999999999 0.0433188 0.7335845999999999-2.4122825999999997 5.113206-1.48176 5.775084-4.6172699999999995 1.7473428-2.9056104 1.3783392-6.340949999999999 1.9823453999999998-9.51048 0.1322622 2.8799064 1.425438-0.1567566 1.3491576-0.271404 1.3920228-0.1285578 2.5159302-4.74201 1.485162-6.634656-0.5346432-1.1898684-1.0760904-2.9656368-1.0840283999999998-0.7081829999999999-0.5316948 2.234925-0.44932859999999997 5.250042-1.9504043999999998 6.861077999999999-0.7889615999999999-2.6159868-0.8478161999999999-5.460588-1.6079363999999998-8.119817999999999-0.9573605999999999-4.1077259999999995-2.1892625999999997-8.40294-5.048189999999999-11.621232-2.5775819999999996-0.8900388-5.340006 1.4073695999999998-7.958411999999999 1.9240577999999997-3.8646719999999997 1.5117732-8.065386 1.7278758-12.001878 2.9442798-3.5561483999999997 1.4292936-3.654315 5.704398-4.134942000000001 8.92647-0.6938567999999999 4.92912-0.7505567999999999 10.027584 0.8034012 14.809284 0.6638436 2.4883362 3.0032478 4.74768 5.358149999999999 3.898692 1.6414271999999999 1.085427-2.609145-0.2987334-0.6554898 0.920052 2.5355862 0.9594017999999999 2.6886761999999997 5.300694 5.750892 5.496498 1.4758254 0.5865047999999999-0.2541672 0.837648 1.5639371999999998 1.0775267999999998 1.6975601999999999 0.07189559999999999 3.3127164000000002 0.9738791999999998 4.939325999999999 0.2353806zm2.9131704-2.0178396c-0.556983-1.1944043999999998 2.5517268-1.6014726 0.4370058-3e-3 -0.055150199999999996 0.156303-0.4201092 0.28160999999999997-0.4370058 3e-3zm-6.276312-0.21054599999999998c1.1543742 0.3132108 0.9831401999999999-2.4205608 1.1583809999999999-0.1371006-0.010999799999999999 0.520695-1.00359 0.569457-1.1583809999999999 0.1371006zm-0.31375511999999994-3.0330342c0.7042896-1.0186722 4.192775999999999 0.129276 1.0452455999999999-0.017766-0.34601363999999996-0.16322040000000002-0.8796438 0.5305985999999999-1.0452455999999999 0.017766zm-3.932334-1.1924765999999998c-1.2567366-1.006614-4.082022-1.8987318-4.232466-2.5295381999999997 1.5014916 0.5442444 4.396896 1.8009054 4.688712 2.8629341999999998zm1.7237178-0.1113966c-1.0024937999999999-0.3779244-4.568508-2.9075382-3.7605707999999995-2.8910573999999998 2.3124906 1.7958402 5.263272 3.2032097999999998 8.236241999999999 2.2380624 0.9707039999999999 0.2845584 4.780944-2.8773359999999997 3.5925497999999996-1.4652413999999998-1.8124722 2.7160811999999996-5.223959999999999 2.4811164-8.06841 2.1181986zm-0.3934224-1.6790759999999998c-2.5214868-0.713853-4.438853999999999-2.948589-5.219046-5.3815859999999995 3.710826 1.2971825999999997 7.649585999999999 2.041767 11.579274 1.3892256 1.3705524 0.010962 5.70591-1.5376661999999999 4.864103999999999-2.0507256-5.422788 1.942164-11.401992 1.6083144-16.865226 0.00945-0.021130200000000002 1.0416923999999999 0.8807777999999999 5.166504-0.17242470000000001 2.7260226-1.6029845999999999-3.501792 1.1923253999999999-6.249852 4.622184-6.4649339999999995 3.754107 0.023058-1.7979192 0.6485346-2.7612144 1.3629924-0.9989406 1.2588156 3.929688 1.2591936000000001 5.483646 1.4469083999999999 3.2177249999999997 0.031374 6.636168 0.2962008 9.64467-1.0416923999999999-1.1042513999999999-0.5694191999999999-3.3891858-2.3076521999999997-4.41882-1.15668-1.1994318 2.447739-6.867126 2.2552236-5.421276-1.2229812 0.40052879999999996-2.2460381999999997 0.7390656-4.50387 0.9399725999999999-6.776783999999999-2.3583798 0.49196699999999993-4.6660319999999995-1.1108286-7.076916-0.5476086-1.5987509999999998 0.0850689-6.067278 2.0689073999999996-5.457186-0.6225282 2.9862377999999996-2.1260988 7.242857999999999-2.917593 10.625202-1.3261751999999998 2.3522562 1.8746909999999999 2.7038718 4.339061999999999 1.738989 7.265915999999999-1.4664888 2.582118 0.7799651999999999 6.16707 3.34152 3.5965566-0.4783212-3.1807187999999997-1.466451-6.4509479999999995 0.16893198-9.547146 1.1392163999999998-2.7276101999999995 6.112638-2.6531819999999997 8.683793999999999-1.5066324 2.14515 0.14365889999999998 4.806648 3.3695298 1.1163096000000001 2.956527-3.0808511999999997-1.1187666-6.491394-1.2501216-9.542988 0.045397799999999995-1.5003197999999998 2.0151936-0.8122086 6.495551999999999 0.8098272 7.361549999999999 2.0826665999999996-0.8459262 4.595346 0.62559 6.118308 2.0885634 0.07798139999999999 1.3332815999999998-0.35588699999999995 2.9104866-0.6508404 4.271399999999999-1.5941771999999998 1.9931183999999997 0.510678-4.4290259999999995-1.066905-1.2338676-1.2377987999999998 3.5116577999999996-5.166881999999999 4.6195379999999995-8.539398 4.597613999999999-0.8526545999999999 0.008693999999999999-1.7122643999999998-0.04672079999999999-2.5444313999999997-0.23863140000000002zm5.345298-1.3875624c2.1123018-0.7084098 3.9508559999999995-2.0247569999999997 5.631444-3.4532568-4.67397 1.8291419999999998-9.988271999999998 2.0554884-14.742378 0.38378339999999994 0.13182750000000001 1.4528807999999998 4.26006 3.8446379999999993 6.659981999999999 3.4983522 0.8297478-0.0480438 1.65564-0.1866564 2.4509142-0.4288788zm-12.164795999999999-14.46228c-2.6438454-0.9964457999999999 2.5173288-0.089775 3.4283466000000002-0.5848794 1.6260047999999998-0.6996024 5.3985959999999995 0.5265917999999999 1.7077662 0.768474-1.7027388 0.11918340000000001-3.4602876 0.1938384-5.136264-0.1835946zm15.399341999999999 0.040899599999999994c-3.7271178-1.0944989999999999 3.5178192-0.6053292 4.804379999999999-0.588357 4.245696 0.104706-2.3928912 1.4044211999999998-4.804379999999999 0.588357zm12.74427 8.781696c1.5012648-1.8778662-0.932526-4.584384-1.6353035999999999-1.617084-0.13539959999999998 1.2100914-0.10508399999999998 3.0666006 1.6353035999999999 1.617084zm-33.748596-3.4205976c-1.3388004-1.865241-1.793043-5.77395-2.837835-6.5734200000000005-1.6653168 2.530899-0.010999799999999999 5.745222 2.6556767999999997 6.690977999999999l0.13474566-4e-3zm13.715729999999999-20.010564c3.746358-1.4013594 7.198632-3.5545986 11.160449999999999-4.3659 2.1335832-1.0777157999999998-2.575314-0.19580399999999998-3.3886565999999996-0.21042504-7.242101999999999 0.6589674-14.474376 1.535247-21.605345999999997 2.9770901999999997 0.21565656 0.741825-0.711396 2.5737642 0.36688302 2.492721 3.860892-0.0920997 7.749378-0.0345492 11.59326-0.21862763999999998z" stroke-width=".062311"/>
</svg>
